<svg width="143" height="29" viewBox="0 0 143 29" fill="none" xmlns="http://www.w3.org/2000/svg">
<g clip-path="url(#clip0_4_186)">
<path d="M16.5035 5.27538L8.25173 10.5508L16.5035 15.8261L8.25173 21.1015L0 15.7976L8.25173 10.5222L0 5.27538L8.25173 0L16.5035 5.27538ZM8.20905 22.7982L16.4608 17.5228L24.7125 22.7982L16.4608 28.0736L8.20905 22.7982ZM16.5035 15.7976L24.7552 10.5222L16.5035 5.27538L24.7125 0L32.9642 5.27538L24.7125 10.5508L32.9642 15.8261L24.7125 21.1015L16.5035 15.7976Z" fill="#0061FF"/>
<path d="M39.4375 5.27544H46.11C50.3639 5.27544 53.878 7.74203 53.878 13.3739V14.5573C53.878 20.2319 50.5916 22.784 46.2381 22.784H39.4375V5.27544ZM43.165 8.45492V19.5903H46.0247C48.4433 19.5903 50.0652 18.0076 50.0652 14.486V13.5592C50.0652 10.0375 48.3579 8.45492 45.8966 8.45492H43.165ZM55.8556 8.62602H58.8433L59.327 11.9196C59.8961 9.68109 61.3473 8.48344 63.9793 8.48344H64.904V12.2618H63.3675C60.3371 12.2618 59.5973 13.3168 59.5973 16.311V22.8268H55.9125V8.62602H55.8556ZM65.6439 16.0115V15.6123C65.6439 10.8645 68.6742 8.26957 72.8001 8.26957C77.0113 8.26957 79.9563 10.8645 79.9563 15.6123V16.0115C79.9563 20.6738 77.0967 23.1832 72.8001 23.1832C68.2332 23.1404 65.6439 20.6881 65.6439 16.0115ZM76.1861 15.9688V15.6123C76.1861 12.9746 74.863 11.392 72.7574 11.392C70.6945 11.392 69.3287 12.8463 69.3287 15.6123V15.9688C69.3287 18.5209 70.6518 19.9752 72.7574 19.9752C74.863 19.9324 76.1861 18.5209 76.1861 15.9688ZM81.8912 8.62602H84.9643L85.32 11.3065C86.0598 9.51 87.639 8.26957 89.9722 8.26957C93.5717 8.26957 95.9476 10.8645 95.9476 15.6694V16.0686C95.9476 20.7309 93.3156 23.1975 89.9722 23.1975C87.7386 23.1975 86.202 22.1852 85.448 20.5598V27.7314H81.8485L81.8912 8.62602ZM92.2059 15.9688V15.6551C92.2059 12.8321 90.7547 11.4348 88.8198 11.4348C86.7569 11.4348 85.3911 13.0174 85.3911 15.6551V15.926C85.3911 18.4354 86.7142 20.018 88.7772 20.018C90.897 19.9752 92.2059 18.6207 92.2059 15.9688ZM101.397 20.2033L101.084 22.7983H97.9252V3.87817H101.525V11.1354C102.321 9.28187 103.901 8.26957 106.134 8.26957C109.52 8.31234 112.024 10.6506 112.024 15.3557V15.7977C112.024 20.5028 109.648 23.1975 106.049 23.1975C103.673 23.1404 102.136 22.0426 101.397 20.2033ZM108.24 15.7977V15.4412C108.24 12.8463 106.831 11.392 104.854 11.392C102.834 11.392 101.425 13.0174 101.425 15.484V15.7977C101.425 18.4354 102.791 19.9752 104.811 19.9752C106.974 19.9752 108.24 18.6207 108.24 15.7977ZM113.603 16.0115V15.6123C113.603 10.8645 116.634 8.26957 120.76 8.26957C124.971 8.26957 127.916 10.8645 127.916 15.6123V16.0115C127.916 20.6738 125.014 23.1832 120.76 23.1832C116.193 23.1404 113.603 20.6881 113.603 16.0115ZM124.174 15.9688V15.6123C124.174 12.9746 122.851 11.392 120.745 11.392C118.683 11.392 117.317 12.8463 117.317 15.6123V15.9688C117.317 18.5209 118.64 19.9752 120.745 19.9752C122.865 19.9324 124.174 18.5209 124.174 15.9688ZM132.739 15.4412L127.774 8.62602H132.028L134.887 12.8891L137.79 8.62602H142.001L136.964 15.3985L142.271 22.7983H138.103L134.859 18.0932L131.7 22.7983H127.347L132.739 15.4412Z" fill="black"/>
</g>
<defs>
<clipPath id="clip0_4_186">
<rect width="142.271" height="28.0736" fill="white"/>
</clipPath>
</defs>
</svg>
